<?xml version="1.0" standalone="no"?>
<!DOCTYPE svg PUBLIC "-//W3C//DTD SVG 20010904//EN"
 "http://www.w3.org/TR/2001/REC-SVG-20010904/DTD/svg10.dtd">
<svg version="1.0" xmlns="http://www.w3.org/2000/svg"
 width="500.000000pt" height="500.000000pt" viewBox="0 0 500.000000 500.000000"
 preserveAspectRatio="xMidYMid meet">

<g transform="translate(0.000000,500.000000) scale(0.100000,-0.100000)"
fill="#000000" stroke="none">
<path d="M2365 3972 c-49 -21 -111 -50 -137 -65 l-48 -28 0 31 c0 16 -5 30
-11 30 -7 0 -34 -20 -60 -45 -43 -40 -53 -45 -94 -45 -25 0 -59 -7 -74 -15
-33 -17 -77 -65 -86 -96 -6 -19 -12 -20 -75 -14 l-67 7 -69 -60 c-131 -114
-230 -224 -250 -276 -13 -37 -41 -70 -117 -145 -164 -159 -192 -218 -237 -496
l-21 -131 46 -96 c40 -85 85 -225 85 -266 0 -7 -9 -16 -20 -19 -17 -4 -20 -14
-20 -55 0 -41 15 -86 84 -242 46 -105 96 -226 111 -268 15 -43 31 -78 36 -78
15 0 49 -43 49 -62 0 -32 38 -129 65 -164 38 -50 79 -67 171 -74 69 -5 88 -11
118 -33 42 -32 106 -57 148 -57 29 0 131 -47 229 -106 33 -20 64 -32 73 -28
12 5 16 0 16 -16 0 -21 3 -22 38 -16 92 15 250 18 322 6 41 -7 104 -13 140
-14 48 -1 75 -7 103 -24 44 -25 89 -30 81 -8 -4 11 9 19 47 30 73 22 94 20
113 -9 22 -33 30 -32 41 8 9 28 15 32 48 35 31 3 37 7 37 27 0 27 95 144 136
165 24 13 28 13 45 -9 17 -20 19 -21 19 -5 0 11 -9 30 -20 44 -11 14 -20 28
-20 32 0 10 69 30 85 24 9 -3 15 0 15 8 0 17 22 26 60 26 33 0 60 23 60 51 0
11 23 48 52 82 90 108 149 207 214 360 32 75 33 79 12 65 -13 -8 -42 -39 -64
-69 -23 -30 -48 -54 -55 -54 -8 0 -19 -11 -26 -25 -9 -18 -12 -20 -13 -7 0 9
-3 17 -6 17 -3 0 -60 -42 -127 -93 -136 -104 -349 -256 -415 -294 -39 -23 -44
-24 -66 -10 -21 14 -26 14 -45 0 -21 -14 -24 -14 -42 6 -25 26 -35 26 -51 2
-9 -15 -15 -17 -25 -9 -10 8 -13 5 -13 -10 0 -14 -5 -20 -14 -16 -8 3 -17 0
-21 -7 -6 -8 -13 -5 -26 12 -15 20 -19 21 -19 7 0 -10 -4 -18 -10 -18 -5 0
-10 -7 -10 -15 0 -27 -52 -64 -90 -65 -19 0 -63 -6 -98 -14 -56 -11 -72 -11
-138 5 -41 10 -118 23 -172 29 -176 19 -230 31 -304 67 -65 31 -71 36 -55 47
25 19 23 40 -3 26 -12 -6 -32 -10 -45 -8 -27 3 -462 419 -509 486 -15 22 -45
83 -66 134 -30 71 -43 92 -56 90 -20 -4 -34 14 -34 46 0 14 6 22 16 22 14 0
16 8 10 53 -19 145 -19 183 -2 216 12 22 26 106 41 245 42 366 90 467 343 712
105 102 146 134 256 200 273 163 357 194 550 202 146 5 166 15 166 77 0 27 -4
35 -18 35 -10 0 -33 11 -52 25 -19 14 -43 25 -54 24 -12 0 -61 -17 -111 -37z
m-1125 -1931 c-1 -13 -4 -12 -15 3 -8 11 -15 27 -15 35 1 13 4 12 15 -3 8 -11
15 -27 15 -35z m53 -7 c16 -31 26 -58 24 -60 -8 -9 -47 38 -47 57 0 11 -5 29
-10 40 -6 10 -7 19 -2 19 4 0 20 -25 35 -56z"/>
<path d="M2884 3904 c-14 -14 -33 -19 -75 -19 -67 0 -89 -15 -89 -60 0 -56 79
-108 183 -121 73 -9 168 -66 475 -286 68 -48 131 -88 140 -88 9 0 30 7 46 15
15 8 30 15 32 15 2 0 4 -20 4 -45 0 -71 41 -159 100 -214 l51 -48 -2 -69 c-3
-82 17 -130 87 -204 25 -27 44 -57 44 -70 0 -18 4 -21 21 -17 20 5 21 3 15
-91 l-5 -97 18 100 c10 56 24 118 31 139 13 42 8 59 -10 27 -20 -38 -27 -22
-34 77 -4 53 -13 143 -21 200 l-13 102 -154 247 c-178 286 -232 345 -384 425
-125 65 -208 89 -335 95 -95 5 -108 4 -125 -13z"/>
<path d="M2290 2796 c0 -8 -9 -18 -20 -21 -18 -6 -20 -15 -20 -112 0 -96 2
-105 20 -110 15 -4 20 -14 20 -39 0 -49 17 -51 64 -5 l42 41 153 0 c144 0 153
1 158 20 3 11 12 20 19 20 11 0 14 19 14 86 0 76 -3 89 -22 110 -23 23 -25 24
-225 24 -170 0 -203 -2 -203 -14z m377 -35 c3 -11 13 -21 24 -24 16 -4 19 -14
19 -57 0 -43 -3 -53 -20 -57 -11 -3 -20 -12 -20 -19 0 -11 -28 -14 -144 -14
-128 0 -146 -2 -169 -20 -25 -20 -25 -20 -30 0 -3 11 -12 20 -21 20 -13 0 -16
13 -16 74 0 65 2 74 20 79 11 3 20 12 20 21 0 14 21 16 166 16 155 0 166 -1
171 -19z"/>
<path d="M1683 2418 c-22 -34 -70 -178 -59 -178 6 0 16 10 21 23 8 18 19 23
58 25 43 3 48 1 57 -22 5 -15 14 -26 20 -26 14 0 14 -3 -22 92 -36 95 -55 117
-75 86z m56 -101 c1 -15 -6 -18 -36 -15 -42 3 -44 13 -16 78 l15 35 18 -40
c10 -22 19 -48 19 -58z"/>
<path d="M1930 2394 c0 -31 -3 -35 -17 -29 -39 16 -50 15 -76 -5 -50 -40 -26
-120 36 -120 38 0 50 7 66 37 14 27 15 153 1 153 -5 0 -10 -16 -10 -36z m-14
-63 c26 -51 -28 -99 -66 -61 -24 24 -25 47 -3 72 22 24 54 19 69 -11z"/>
<path d="M1990 2415 c0 -8 5 -15 10 -15 6 0 10 7 10 15 0 8 -4 15 -10 15 -5 0
-10 -7 -10 -15z"/>
<path d="M2050 2335 c0 -57 4 -95 10 -95 6 0 10 38 10 95 0 57 -4 95 -10 95
-6 0 -10 -38 -10 -95z"/>
<path d="M2547 2403 c-6 -16 -16 -31 -22 -35 -6 -5 -5 -8 3 -8 8 0 12 -19 12
-60 0 -47 3 -60 15 -60 12 0 15 13 15 59 0 54 2 60 23 64 l22 4 -22 2 c-30 1
-33 41 -3 41 11 0 20 5 20 10 0 6 -11 10 -25 10 -18 0 -29 -8 -38 -27z"/>
<path d="M2190 2330 c0 -53 4 -90 10 -90 6 0 10 16 10 35 0 32 3 35 29 35 23
0 34 -8 50 -35 11 -19 27 -35 36 -35 20 0 19 6 -5 30 -24 24 -25 43 -5 60 8 7
15 22 15 35 0 36 -31 55 -88 55 l-52 0 0 -90z m98 64 c12 -8 22 -21 22 -29 0
-20 -40 -45 -72 -45 -26 0 -28 3 -28 38 0 21 3 42 7 45 11 12 48 7 71 -9z"/>
<path d="M2400 2373 c-40 -15 -55 -87 -24 -117 18 -19 65 -21 82 -4 9 9 12 9
12 0 0 -7 5 -12 10 -12 14 0 12 93 -2 113 -14 18 -55 29 -78 20z m51 -23 c27
-15 25 -64 -3 -84 -19 -13 -25 -14 -43 -2 -27 18 -32 66 -9 83 22 16 30 16 55
3z"/>
<path d="M2645 2355 c-25 -24 -32 -59 -17 -81 18 -28 102 -48 102 -24 0 6 -13
10 -29 10 -16 0 -37 8 -47 18 -17 16 -15 17 40 20 53 3 57 4 51 25 -8 26 -41
57 -62 57 -7 0 -25 -11 -38 -25z m63 -7 c22 -22 13 -38 -22 -38 -41 0 -52 12
-30 34 18 19 36 20 52 4z"/>
<path d="M2802 2363 c-35 -30 -38 -68 -8 -97 25 -26 86 -37 86 -16 0 6 -13 10
-28 10 -27 0 -52 15 -52 32 0 4 23 8 50 8 58 0 65 16 25 55 -29 30 -46 31 -73
8z m67 -22 c13 -24 5 -31 -36 -31 -34 0 -43 16 -21 38 18 18 46 15 57 -7z"/>
<path d="M2965 2368 c-28 -16 -35 -28 -35 -65 0 -24 7 -38 30 -55 17 -12 30
-30 30 -40 0 -10 5 -18 10 -18 6 0 10 10 10 23 0 12 9 28 20 35 45 28 41 105
-7 123 -30 11 -33 11 -58 -3z m63 -20 c13 -13 16 -57 4 -74 -25 -37 -82 -12
-82 36 0 42 50 66 78 38z"/>
<path d="M3285 2355 c-25 -24 -32 -59 -17 -81 18 -28 102 -48 102 -24 0 6 -16
10 -35 10 -24 0 -37 6 -45 20 -10 19 -8 20 43 20 53 0 54 1 49 25 -5 26 -36
55 -60 55 -7 0 -24 -11 -37 -25z m63 -7 c22 -22 13 -38 -22 -38 -41 0 -52 12
-30 34 18 19 36 20 52 4z"/>
<path d="M1990 2305 c0 -37 4 -65 10 -65 6 0 10 28 10 65 0 37 -4 65 -10 65
-6 0 -10 -28 -10 -65z"/>
<path d="M3100 2322 c0 -54 20 -82 59 -82 47 0 61 17 61 75 0 30 -4 55 -10 55
-5 0 -10 -22 -10 -50 0 -59 -22 -79 -58 -54 -17 12 -22 25 -22 60 0 24 -4 44
-10 44 -5 0 -10 -22 -10 -48z"/>
</g>
</svg>
